# xmcd
#
# Track frame offsets:
#	150
#	30125
#	75111
#	93860
#	129252
#
# Disc length: 1980 seconds
#
# Revision: 1
# Processed by: cddbd v1.5.2PL0 Copyright (c) Steve Scherf et al.
# Submitted via: audiograbber 1.83.01
#
DISCID=1f07ba05
DTITLE=Grateful Dead - 80-11-26 Sportatorium, Pembroke Pines FL
DYEAR=1900
DGENRE=
TTITLE0=Space
TTITLE1=Wharf Rat
TTITLE2=Around and Around
TTITLE3=Good Lovin'
TTITLE4=Satisfaction
EXTD=
EXTT0=
EXTT1=
EXTT2=
EXTT3=
EXTT4=
PLAYORDER=
